[img]http://img507.imageshack.us/img507/3939/deepimpact.jpg[/img]
 
http://www.imdb.com/title/tt0120647/

Source: Deep.Impact.1998.720p.BluRay.x264-FiSH

Subs: Arabic, Danish, Dutch, English, Finnish, French, Greek, Hebrew, Hungarian, Polish, Portuguese, Servian, Turkish, Vietnamese.

Sample and Screens included.

General
Complete name                    : Deep Impact-720p MP4 AAC BRRip 1998-CC.mp4
Format                           : MPEG-4
Format profile                   : Base Media
Codec ID                         : isom
File size                        : 1.91 GiB
Duration                         : 2h 1mn
Overall bit rate                 : 2 254 Kbps
Encoded date                     : UTC 2012-01-20 10:26:11
Tagged date                      : UTC 2012-01-20 10:26:11
Writing application              : Yamb 2.1.0.0 

Video
ID                               : 1
Format                           : AVC
Format/Info                      : Advanced Video Codec
Format profile                   : High@L3.1
Format settings, CABAC           : Yes
Format settings, ReFrames        : 5 frames
Codec ID                         : avc1
Codec ID/Info                    : Advanced Video Coding
Duration                         : 2h 1mn
Bit rate mode                    : Variable
Bit rate                         : 1 820 Kbps
Maximum bit rate                 : 17.2 Mbps
Width                            : 1 280 pixels
Height                           : 544 pixels
Display aspect ratio             : 2.35:1
Frame rate mode                  : Variable
Frame rate                       : 23.976 fps
Minimum frame rate               : 15.932 fps
Maximum frame rate               : 24.390 fps
Color space                      : YUV
Chroma subsampling               : 4:2:0
Bit depth                        : 8 bits
Scan type                        : Progressive
Bits/(Pixel*Frame)               : 0.109
Stream size                      : 1.53 GiB (80%)
Writing library                  : x264 core 112
Encoding settings                : cabac=1 / ref=5 / deblock=1:0:0 / analyse=0x3:0x113 / me=hex / subme=7 / psy=1 / psy_rd=1.00:0.00 / mixed_ref=1 / me_range=16 / chroma_me=1 / trellis=1 / 8x8dct=1 / cqm=0 / deadzone=21,11 / fast_pskip=1 / chroma_qp_offset=-2 / threads=3 / sliced_threads=0 / nr=0 / decimate=1 / interlaced=0 / constrained_intra=0 / bframes=5 / b_pyramid=2 / b_adapt=2 / b_bias=0 / direct=1 / weightb=1 / open_gop=0 / weightp=2 / keyint=240 / keyint_min=23 / scenecut=40 / intra_refresh=0 / rc_lookahead=50 / rc=abr / mbtree=1 / bitrate=1820 / ratetol=1.0 / qcomp=0.60 / qpmin=3 / qpmax=51 / qpstep=4 / ip_ratio=1.40 / aq=1:1.00
Encoded date                     : UTC 2012-01-20 23:41:54
Tagged date                      : UTC 2012-01-20 10:30:13
Color primaries                  : BT.709-5, BT.1361, IEC 61966-2-4, SMPTE RP177
Transfer characteristics         : BT.709-5, BT.1361
Matrix coefficients              : BT.709-5, BT.1361, IEC 61966-2-4 709, SMPTE RP177

Audio
ID                               : 2
Format                           : AAC
Format/Info                      : Advanced Audio Codec
Format version                   : Version 4
Format profile                   : LC
Format settings, SBR             : No
Codec ID                         : 40
Duration                         : 2h 1mn
Bit rate mode                    : Variable
Bit rate                         : 447 Kbps
Maximum bit rate                 : 771 Kbps
Channel(s)                       : 6 channels
Channel positions                : Front: L C R, Side: L R, LFE
Sampling rate                    : 48.0 KHz
Stream size                      : 387 MiB (20%)
Language                         : English
Encoded date                     : UTC 2012-01-20 10:29:32
Tagged date                      : UTC 2012-01-20 10:30:13

Enjoy...

[img]http://img38.imageshack.us/img38/7162/deepimpact720pmp4aacbrr.png[/img]

[img]http://img843.imageshack.us/img843/7162/deepimpact720pmp4aacbrr.png[/img]

[img]http://img827.imageshack.us/img827/7162/deepimpact720pmp4aacbrr.png[/img]

[img]http://img190.imageshack.us/img190/7162/deepimpact720pmp4aacbrr.png[/img]

[img]http://img163.imageshack.us/img163/7162/deepimpact720pmp4aacbrr.png[/img]

[img]http://img841.imageshack.us/img841/7162/deepimpact720pmp4aacbrr.png[/img]